<svg id="Capa_1" enable-background="new 0 0 512 512" height="512" viewBox="0 0 512 512" width="512" xmlns="http://www.w3.org/2000/svg"><g><path d="m505.83 160.364c-4.507-4.507-10.72-6.716-17.072-6.057-12.476 1.295-25.204 2.192-37.666 3.129-4.348-13.449-9.23-26.585-14.115-39.719-3.866-10.395-7.864-21.144-11.442-31.693-2.047-6.038-6.649-10.772-12.625-12.988-5.975-2.216-12.551-1.626-18.041 1.617-16.066 9.489-32.43 18.118-48.663 27.348-13.187-17.239-26.89-33.07-40.867-49.318-10.611-12.314-21.581-25.048-31.798-37.769-4.29-5.342-10.684-8.406-17.541-8.406-6.858 0-13.251 3.064-17.542 8.406-10.216 12.72-21.186 25.453-31.796 37.767-13.98 16.254-27.676 32.077-40.876 49.316-16.228-9.228-32.592-17.858-48.656-27.344-5.489-3.243-12.064-3.833-18.04-1.617s-10.578 6.95-12.626 12.989c-3.577 10.549-7.575 21.297-11.441 31.692-4.886 13.137-9.764 26.267-14.115 39.72-12.461-.939-25.191-1.833-37.667-3.129-6.344-.66-12.564 1.55-17.071 6.057-4.507 4.507-6.714 10.729-6.056 17.071 1.15 11.082 2 22.52 2.823 33.581 3.048 34.687 3.461 67.057 19.14 101.951 14.515 30.905 36.141 51.725 65.225 62.269-12.335 15.011-24.384 47.188-26.272 57.388-1.505 6.104 2.042 12.273 8.074 14.044 16.652 5.352 52.809 10.451 77.11 3.642 9.534-2.63 6.233-16.514-3.484-14.542-9.109 2.182-18.471 3.167-27.839 2.928-16.922-.432-31.132-3.557-38.55-5.532 2.025-7.403 6.474-21.256 14.614-36.1 3.404-6.207 7.41-12.028 11.926-17.411 29.414 6.228 59.265-3.178 80.17-26.022 6.826 6.364 14.52 11.439 22.919 15.118-2.779 9.807-4.35 19.961-4.633 30.246-7.973 9.753-17.63 18.098-28.57 24.587-3.552 2.107-4.724 6.694-2.617 10.246 2.107 3.551 6.694 4.723 10.246 2.617 8.017-4.755 15.425-10.392 22.114-16.761 3.485 32.287 26.627 65.059 45.385 82.549 2.27 2.174 5.185 3.26 8.1 3.26 2.914 0 5.829-1.087 8.1-3.259 18.759-17.481 41.924-50.304 45.394-82.557 23.291 22.386 55.749 34.924 88 33.97 20.627-.527 37.301-4.597 45.405-6.977 6.033-1.771 9.58-7.94 8.076-14.044-2.022-8.203-6.895-24.664-16.813-42.751-2.807-5.118-5.975-10.002-9.456-14.638 29.083-10.546 50.709-31.36 65.222-62.268 15.684-34.91 16.091-67.266 19.142-101.965.822-11.056 1.672-22.49 2.821-33.566.658-6.345-1.549-12.568-6.056-17.075zm-313.024-68.263c18.843-22.839 38.705-44.66 57.312-67.822 2.831-3.717 8.932-3.722 11.763 0 23.366 29.098 48.467 55.757 71.299 85.298-14.616 8.721-30.208 19.018-43.831 32.466-4.148-4.828-8.331-9.728-12.377-14.598-5.203-6.26-12.847-9.851-20.973-9.851s-15.77 3.591-20.972 9.851c-4.049 4.872-8.234 9.775-12.383 14.605-13.622-13.448-29.209-23.752-43.825-32.472 4.681-6.088 9.401-11.914 13.987-17.477zm-113.631 57.941c6.901-19.84 14.677-39.242 21.451-59.215.814-2.399 2.644-3.391 3.663-3.769 1.019-.377 3.054-.818 5.233.47 18.159 10.728 36.704 20.369 54.872 30.913 15.917 9.245 33.715 20.203 48.467 34.976-20.503 24.439-40.982 46.56-53.5 79.746-10.201 28.366-11.066 55.287-1.938 80.24-50.254 9.875-94.529-42.428-92.58-95.134-.151-24.46 7.319-48.043 14.332-68.227zm90.285 196.033c-40.806 42.204-111.382 14.264-133.829-39.431-10.342-22.168-13.391-46.717-15.436-67.986-2.004-20.911-3.031-41.787-5.206-62.766-.296-4.181 2.833-7.003 6.709-6.709 11.589 1.204 23.389 2.069 34.851 2.925-11.48 37.696-8.644 86.766 15.296 117.016 24.279 31.784 56.648 45.879 91.632 38.287 2.811 5.461 6.004 10.504 9.531 15.116zm.21-43.244c-18.638-67.589 38.097-119.009 76.859-165.829 4.651-5.88 14.29-5.887 18.941 0 5.684 6.839 11.586 13.689 17.294 20.315 9.556 11.068 20.754 24.128 29.311 35.3 6.256 7.635 17.633-1.016 11.868-9.1-7.127-9.306-16.708-20.702-24.818-30.114 14.754-14.772 32.563-25.718 48.479-34.962 18.168-10.544 36.714-20.186 54.872-30.913 3.269-1.837 7.344-.748 8.896 3.298 6.774 19.973 14.552 39.375 21.452 59.216 7.014 20.183 14.484 43.764 14.333 68.228 1.957 52.693-42.349 105.023-92.581 95.133 11.758-30.468 6.231-68.788-10.698-99.676-4.983-8.545-17.554-1.818-13.173 7.079 13.867 25 19.454 57.523 11.624 82.025-11.045 36.815-36.734 57.929-70.479 57.929h-31.702c-33.743 0-59.432-21.114-70.478-57.929zm110.338 155.734c-8.811 14.454-18.603 25.217-24.013 30.662-29.92-29.744-48.46-70.621-35.821-115.758 12.343 3.469 38.609 1.941 51.676 2.246 6.932 0 13.61-.764 19.982-2.247 8.001 28.373 3.624 60.006-11.824 85.097zm155.65-25.401c-44.692 12.277-92.6 5.237-124.995-34.173-.281-10.284-1.843-20.44-4.623-30.247 8.395-3.678 16.085-8.752 22.908-15.113 20.908 22.847 50.753 32.249 80.17 26.021 4.518 5.38 8.521 11.203 11.926 17.411 8.138 14.84 12.588 28.695 14.614 36.101zm61.353-257.272c-2.174 20.978-3.201 41.855-5.206 62.766-2.045 21.269-5.093 45.817-15.435 67.987-24.18 56.2-96.262 82.51-137.377 35.882 3.526-4.611 6.718-9.652 9.529-15.112 61.139 14.268 115.592-45.889 113.591-109.051.099-16.218-2.755-31.769-6.661-46.256 11.462-.854 23.262-1.722 34.85-2.924 3.899-.31 7.011 2.579 6.709 6.708z"/></g></svg>